<svg width="60" height="60" viewBox="0 0 60 60" fill="none" xmlns="http://www.w3.org/2000/svg">
<rect width="60" height="60" rx="5" fill="#355FF7"/>
<path d="M46.9737 16.0718H44.5066V13.662C44.5066 12.6784 43.6678 11.8423 42.6809 11.8423C41.6941 11.8423 40.8553 12.6784 40.8553 13.662V16.0718H36.0691V13.662C36.0691 12.6784 35.2303 11.8423 34.2434 11.8423C33.2566 11.8423 32.4178 12.6784 32.4178 13.662V16.0718H27.6316V13.662C27.6316 12.6784 26.7928 11.8423 25.8059 11.8423C24.8191 11.8423 23.9803 12.6784 23.9803 13.662V16.0718H19.1448V13.662C19.1448 12.6784 18.3059 11.8423 17.3191 11.8423C16.3323 11.8423 15.4934 12.6784 15.4934 13.662V16.0718H13.0263C11.4967 16.0718 10.2632 17.3013 10.2632 18.8259V45.4816C10.2632 47.0062 11.4967 48.2357 13.0263 48.2357H46.9737C48.5033 48.2357 49.7369 47.0062 49.7369 45.4816V18.8259C49.7369 17.3013 48.5033 16.0718 46.9737 16.0718ZM42.6809 12.8259C43.125 12.8259 43.5198 13.2193 43.5198 13.662V19.4652C43.5198 19.9079 43.125 20.3013 42.6809 20.3013C42.2369 20.3013 41.8421 19.957 41.8421 19.4652V16.5636V13.662C41.8421 13.2193 42.2369 12.8259 42.6809 12.8259ZM33.4046 13.662C33.4046 13.2193 33.7994 12.8259 34.2434 12.8259C34.6875 12.8259 35.0823 13.2193 35.0823 13.662V19.4652C35.0823 19.9079 34.6875 20.3013 34.2434 20.3013C33.7994 20.3013 33.4046 19.9079 33.4046 19.4652V13.662ZM24.9178 13.662C24.9178 13.2193 25.3125 12.8259 25.7566 12.8259C26.2007 12.8259 26.5954 13.2193 26.5954 13.662V16.5636V19.4652C26.5954 19.9079 26.2007 20.3013 25.7566 20.3013C25.3125 20.3013 24.9178 19.9079 24.9178 19.4652V13.662ZM16.4803 13.662C16.4803 13.2193 16.875 12.8259 17.3191 12.8259C17.7632 12.8259 18.1579 13.2193 18.1579 13.662V16.5636V19.4652C18.1579 19.9079 17.7632 20.3013 17.3191 20.3013C16.875 20.3013 16.4803 19.9079 16.4803 19.4652V13.662ZM13.0263 17.0554H15.4934V19.4652C15.4934 20.4488 16.3323 21.2849 17.3191 21.2849C18.3059 21.2849 19.1448 20.4488 19.1448 19.4652V17.0554H23.9309V19.4652C23.9309 20.4488 24.7698 21.2849 25.7566 21.2849C26.7434 21.2849 27.5823 20.4488 27.5823 19.4652V17.0554H32.3684V19.4652C32.3684 20.4488 33.2073 21.2849 34.1941 21.2849C35.1809 21.2849 36.0198 20.4488 36.0198 19.4652V17.0554H40.8553V19.4652C40.8553 20.4488 41.6941 21.2849 42.6809 21.2849C43.6678 21.2849 44.5066 20.4488 44.5066 19.4652V17.0554H46.9737C47.9606 17.0554 48.75 17.8423 48.75 18.8259V23.1538H11.25V18.8751C11.25 17.8423 12.0395 17.0554 13.0263 17.0554ZM46.9737 47.2521H13.0263C12.0395 47.2521 11.25 46.4652 11.25 45.4816V24.1374H48.75V45.4816C48.75 46.4652 47.9606 47.2521 46.9737 47.2521Z" fill="white"/>
<path d="M19.2432 27.187H15.3945C15.0985 27.187 14.9011 27.3837 14.9011 27.6788V31.5149C14.9011 31.81 15.0985 32.0067 15.3945 32.0067H19.2432C19.5393 32.0067 19.7366 31.81 19.7366 31.5149V27.6788C19.7366 27.3837 19.5393 27.187 19.2432 27.187ZM18.7498 31.0231H15.888V28.1706H18.7498V31.0231Z" fill="white"/>
<path d="M27.6812 27.187H23.8325C23.5365 27.187 23.3391 27.3837 23.3391 27.6788V31.5149C23.3391 31.81 23.5365 32.0067 23.8325 32.0067H27.6812C27.9773 32.0067 28.1746 31.81 28.1746 31.5149V27.6788C28.1746 27.3837 27.9773 27.187 27.6812 27.187ZM27.1878 31.0231H24.326V28.1706H27.1878V31.0231Z" fill="white"/>
<path d="M36.1678 27.187H32.3191C32.0231 27.187 31.8257 27.3837 31.8257 27.6788V31.5149C31.8257 31.81 32.0231 32.0067 32.3191 32.0067H36.1678C36.4638 32.0067 36.6612 31.81 36.6612 31.5149V27.6788C36.6612 27.3837 36.4145 27.187 36.1678 27.187ZM35.6744 31.0231H32.8125V28.1706H35.6744V31.0231Z" fill="white"/>
<path d="M44.6053 27.187H40.7566C40.4606 27.187 40.2632 27.3837 40.2632 27.6788V31.5149C40.2632 31.81 40.4606 32.0067 40.7566 32.0067H44.6053C44.9013 32.0067 45.0987 31.81 45.0987 31.5149V27.6788C45.0987 27.3837 44.9013 27.187 44.6053 27.187ZM44.1119 31.0231H41.25V28.1706H44.1119V31.0231Z" fill="white"/>
<path d="M19.2432 33.2847H15.3945C15.0985 33.2847 14.9011 33.4814 14.9011 33.7765V37.6125C14.9011 37.9076 15.0985 38.1043 15.3945 38.1043H19.2432C19.5393 38.1043 19.7366 37.9076 19.7366 37.6125V33.7765C19.7366 33.4814 19.5393 33.2847 19.2432 33.2847ZM18.7498 37.1207H15.888V34.2683H18.7498V37.1207Z" fill="white"/>
<path d="M27.6812 33.2847H23.8325C23.5365 33.2847 23.3391 33.4814 23.3391 33.7765V37.6125C23.3391 37.9076 23.5365 38.1043 23.8325 38.1043H27.6812C27.9773 38.1043 28.1746 37.9076 28.1746 37.6125V33.7765C28.1746 33.4814 27.9773 33.2847 27.6812 33.2847ZM27.1878 37.1207H24.326V34.2683H27.1878V37.1207Z" fill="white"/>
<path d="M36.1678 33.2847H32.3191C32.0231 33.2847 31.8257 33.4814 31.8257 33.7765V37.6125C31.8257 37.9076 32.0231 38.1043 32.3191 38.1043H36.1678C36.4638 38.1043 36.6612 37.9076 36.6612 37.6125V33.7765C36.6612 33.4814 36.4145 33.2847 36.1678 33.2847ZM35.6744 37.1207H32.8125V34.2683H35.6744V37.1207Z" fill="white"/>
<path d="M44.6053 33.2847H40.7566C40.4606 33.2847 40.2632 33.4814 40.2632 33.7765V37.6125C40.2632 37.9076 40.4606 38.1043 40.7566 38.1043H44.6053C44.9013 38.1043 45.0987 37.9076 45.0987 37.6125V33.7765C45.0987 33.4814 44.9013 33.2847 44.6053 33.2847ZM44.1119 37.1207H41.25V34.2683H44.1119V37.1207Z" fill="white"/>
<path d="M19.2432 39.3838H15.3945C15.0985 39.3838 14.9011 39.5805 14.9011 39.8756V43.7117C14.9011 44.0067 15.0985 44.2035 15.3945 44.2035H19.2432C19.5393 44.2035 19.7366 44.0067 19.7366 43.7117V39.8756C19.7366 39.5805 19.5393 39.3838 19.2432 39.3838ZM18.7498 43.2199H15.888V40.3674H18.7498V43.2199Z" fill="white"/>
<path d="M27.6812 39.3838H23.8325C23.5365 39.3838 23.3391 39.5805 23.3391 39.8756V43.7117C23.3391 44.0067 23.5365 44.2035 23.8325 44.2035H27.6812C27.9773 44.2035 28.1746 44.0067 28.1746 43.7117V39.8756C28.1746 39.5805 27.9773 39.3838 27.6812 39.3838ZM27.1878 43.2199H24.326V40.3674H27.1878V43.2199Z" fill="white"/>
<path d="M36.1678 39.3838H32.3191C32.0231 39.3838 31.8257 39.5805 31.8257 39.8756V43.7117C31.8257 44.0067 32.0231 44.2035 32.3191 44.2035H36.1678C36.4638 44.2035 36.6612 44.0067 36.6612 43.7117V39.8756C36.6612 39.5805 36.4145 39.3838 36.1678 39.3838ZM35.6744 43.2199H32.8125V40.3674H35.6744V43.2199Z" fill="white"/>
<path d="M44.6053 39.3838H40.7566C40.4606 39.3838 40.2632 39.5805 40.2632 39.8756V43.7117C40.2632 44.0067 40.4606 44.2035 40.7566 44.2035H44.6053C44.9013 44.2035 45.0987 44.0067 45.0987 43.7117V39.8756C45.0987 39.5805 44.9013 39.3838 44.6053 39.3838ZM44.1119 43.2199H41.25V40.3674H44.1119V43.2199Z" fill="white"/>
</svg>
