<svg width="60" height="60" viewBox="0 0 60 60" fill="none" xmlns="http://www.w3.org/2000/svg">
<rect width="60" height="60" rx="5" fill="#355FF7"/>
<path d="M45.0679 37.7065C46.3003 38.829 47.0835 40.3584 47.2775 42.0117C47.4715 43.6668 47.0607 45.3341 46.122 46.7117C45.1833 48.0874 43.7796 49.0791 42.1679 49.5068C40.5562 49.9328 38.8448 49.7634 37.3469 49.0319C35.8488 48.2987 34.6654 47.0521 34.0151 45.5193C33.3631 43.9864 33.2879 42.2703 33.8001 40.6852L23.9881 35.0234C19.9484 39.5504 11.8093 36.888 11.8424 30.4477H11.8441C11.8424 28.5604 12.608 26.7517 13.968 25.4388C15.3281 24.1277 17.1635 23.4241 19.053 23.4887C20.941 23.5551 22.724 24.3843 23.9877 25.788L33.7997 20.1262C33.1774 18.1743 33.4466 16.0496 34.5356 14.3142C35.6247 12.5806 37.4234 11.4126 39.4528 11.1228C41.4823 10.833 43.5363 11.451 45.0694 12.811C51.9252 19.8556 41.9037 29.3057 35.1858 22.5824L25.3877 28.2442C25.8177 29.6531 25.8177 31.158 25.3877 32.5652L35.1858 38.2288C36.4462 36.8845 38.1803 36.0796 40.0229 35.9819C41.8636 35.8841 43.6732 36.5018 45.0679 37.7065Z" fill="white"/>
</svg>
