<svg width="60" height="60" viewBox="0 0 60 60" fill="none" xmlns="http://www.w3.org/2000/svg">
<rect width="60" height="60" rx="5" fill="#355FF7"/>
<path d="M12.2395 47.7611C12.4994 48.0159 12.8488 48.1586 13.2128 48.1586C13.5767 48.1586 13.9262 48.0159 14.1861 47.7611L35.8764 26.0708C36.0772 25.8031 36.1747 25.4719 36.1509 25.138C36.1272 24.8042 35.9839 24.4901 35.7472 24.2534C35.5105 24.0168 35.1965 23.8734 34.8626 23.8497C34.5288 23.826 34.1975 23.9235 33.9298 24.1243L12.2395 45.8146C11.9847 46.0745 11.842 46.4239 11.842 46.7879C11.842 47.1518 11.9847 47.5012 12.2395 47.7611Z" fill="white"/>
<path d="M34.532 19.1651V13.2327C34.532 12.8639 34.3855 12.5103 34.1248 12.2495C33.864 11.9888 33.5104 11.8423 33.1416 11.8423C32.7729 11.8423 32.4192 11.9888 32.1585 12.2495C31.8977 12.5103 31.7512 12.8639 31.7512 13.2327V19.1651C31.7512 19.5338 31.8977 19.8875 32.1585 20.1482C32.4192 20.409 32.7729 20.5555 33.1416 20.5555C33.5104 20.5555 33.864 20.409 34.1248 20.1482C34.3855 19.8875 34.532 19.5338 34.532 19.1651Z" fill="white"/>
<path d="M48.158 26.8587C48.158 26.4899 48.0115 26.1363 47.7508 25.8755C47.49 25.6147 47.1364 25.4683 46.7676 25.4683H40.8352C40.4665 25.4683 40.1128 25.6147 39.8521 25.8755C39.5913 26.1363 39.4448 26.4899 39.4448 26.8587C39.4448 27.2274 39.5913 27.5811 39.8521 27.8418C40.1128 28.1026 40.4665 28.2491 40.8352 28.2491H46.7676C47.1364 28.2491 47.49 28.1026 47.7508 27.8418C48.0115 27.5811 48.158 27.2274 48.158 26.8587Z" fill="white"/>
<path d="M42.7819 15.2258L38.3789 19.6288C38.2196 19.7483 38.0877 19.9007 37.9924 20.0756C37.897 20.2505 37.8404 20.4438 37.8263 20.6425C37.8121 20.8412 37.8409 21.0407 37.9105 21.2273C37.9802 21.4139 38.0891 21.5834 38.23 21.7243C38.3709 21.8651 38.5403 21.9741 38.727 22.0437C38.9136 22.1134 39.113 22.1421 39.3117 22.128C39.5104 22.1139 39.7038 22.0572 39.8787 21.9619C40.0536 21.8665 40.206 21.7347 40.3255 21.5753L44.7284 17.1724C44.9292 16.9046 45.0267 16.5734 45.003 16.2396C44.9793 15.9057 44.8359 15.5917 44.5993 15.355C44.3626 15.1183 44.0485 14.975 43.7147 14.9513C43.3808 14.9275 43.0496 15.025 42.7819 15.2258Z" fill="white"/>
<path d="M28.693 24.9585C29.0617 24.9585 29.4154 24.8121 29.6761 24.5513C29.9369 24.2906 30.0834 23.9369 30.0834 23.5681C30.0834 23.1994 29.9369 22.8457 29.6761 22.585C29.4154 22.3242 29.0617 22.1777 28.693 22.1777H22.8069C22.4381 22.1777 22.0845 22.3242 21.8237 22.585C21.563 22.8457 21.4165 23.1994 21.4165 23.5681C21.4165 23.9369 21.563 24.2906 21.8237 24.5513C22.0845 24.8121 22.4381 24.9585 22.8069 24.9585H28.693Z" fill="white"/>
<path d="M37.8226 37.1939V31.3079C37.8226 30.9391 37.6761 30.5855 37.4153 30.3247C37.1546 30.064 36.8009 29.9175 36.4322 29.9175C36.0634 29.9175 35.7097 30.064 35.449 30.3247C35.1882 30.5855 35.0417 30.9391 35.0417 31.3079V37.1939C35.0417 37.5627 35.1882 37.9163 35.449 38.1771C35.7097 38.4378 36.0634 38.5843 36.4322 38.5843C36.8009 38.5843 37.1546 38.4378 37.4153 38.1771C37.6761 37.9163 37.8226 37.5627 37.8226 37.1939Z" fill="white"/>
</svg>
