<svg width="80" height="80" viewBox="0 0 80 80" fill="none" xmlns="http://www.w3.org/2000/svg">
<rect width="80" height="80" rx="10" fill="#355FF7"/>
<path d="M40.8161 52.0515V50.3664C41.798 50.129 42.5727 49.3554 42.8079 48.375H56.5815C57.2233 48.375 57.7423 48.8958 57.7423 49.5366V51.8523H59.0079V49.5366C59.0079 48.1988 57.9187 47.1112 56.579 47.1112H42.8054C42.5676 46.1308 41.7954 45.3572 40.8136 45.1223V43.4424H41.4374C41.7366 43.4424 41.9948 43.233 42.0562 42.9394L42.317 41.7114L43.1863 41.3514L44.2423 42.0356C44.4928 42.199 44.8252 42.1633 45.0349 41.9514L46.8118 40.177C47.024 39.9651 47.0573 39.6357 46.8962 39.3856L46.211 38.3311L46.5715 37.4605L47.7373 37.2154H51.3731C55.5842 37.2154 59.0078 33.7943 59.0078 29.5867C59.0078 25.3817 55.5816 21.9631 51.3731 21.9631H51.2964C50.1126 19.1522 47.341 17.2961 44.2548 17.2961C43.1912 17.2961 42.1352 17.5208 41.1688 17.9446C39.8341 15.5268 37.2748 14 34.48 14C30.2689 14 26.8401 17.4212 26.8401 21.6235C26.8401 21.8329 26.8504 22.0448 26.8683 22.2618C23.639 23.1937 21.3532 26.1859 21.3532 29.5866C21.3532 33.7916 24.7793 37.2154 28.993 37.2154H32.6263L33.7922 37.4605L34.1501 38.3285L33.4623 39.383C33.2987 39.6332 33.3345 39.9651 33.5467 40.1744L35.3237 41.9488C35.5359 42.1607 35.8657 42.1939 36.1163 42.033L37.1748 41.3463L38.0441 41.7062L38.3074 42.9368C38.3688 43.2279 38.627 43.4372 38.9262 43.4372H39.5501V45.1172C38.5657 45.3546 37.791 46.1257 37.5557 47.1061H23.7821C22.4423 47.1061 21.3532 48.1937 21.3532 49.5315V52.0489C18.3591 52.1229 14 52.7382 14 54.6811V63.6425C14 65.7259 19.0191 66.2825 21.9848 66.2825C24.9505 66.2825 29.9696 65.7259 29.9696 63.6425V54.6811C29.9696 52.7381 25.6102 52.1229 22.6164 52.0489V49.5315C22.6164 48.8907 23.138 48.3698 23.7772 48.3698H37.5508C37.7886 49.3528 38.5633 50.1264 39.5451 50.3613V52.0463C36.5511 52.1204 32.192 52.7357 32.192 54.6785V63.64C32.192 65.7233 37.211 66.2799 40.1768 66.2799C43.1425 66.2799 48.159 65.7233 48.159 63.64V54.6785C48.159 52.7356 43.8022 52.1203 40.8104 52.0463L40.8161 52.0515ZM22.6191 29.5894C22.6191 26.5869 24.7515 23.97 27.6918 23.3624C28.0217 23.2934 28.2416 22.9794 28.1904 22.6449C28.1367 22.2951 28.1086 21.953 28.1086 21.6237C28.1086 18.1157 30.9671 15.2639 34.4802 15.2639C36.9962 15.2639 39.2844 16.7498 40.3046 19.0476C40.3762 19.2084 40.5143 19.3335 40.6805 19.3897C40.8492 19.4459 41.0333 19.4306 41.1893 19.3438C42.1225 18.8306 43.1836 18.56 44.2549 18.56C46.96 18.56 49.3788 20.2731 50.2711 22.8211C50.3657 23.0892 50.6291 23.2628 50.9129 23.2423C51.0663 23.2321 51.2171 23.227 51.3731 23.227C54.8836 23.227 57.7421 26.0789 57.7421 29.5868C57.7421 33.0948 54.8862 35.9492 51.3731 35.9492H48.3049V34.0726C48.3049 33.7739 48.0952 33.5161 47.8038 33.4548L46.5714 33.1918L46.2109 32.3238L46.8961 31.2693C47.0598 31.0191 47.024 30.6872 46.8117 30.4779L45.0348 28.7035C44.8226 28.4916 44.4927 28.4584 44.2422 28.6193L43.1862 29.3035L42.3144 28.9435L42.0536 27.7129C41.9922 27.4193 41.734 27.21 41.4348 27.21H38.9215C38.6224 27.21 38.3641 27.4193 38.3028 27.7104L38.0394 28.941L37.1701 29.301L36.1116 28.6167C35.861 28.4559 35.5312 28.4891 35.319 28.701L33.542 30.4754C33.3298 30.6873 33.2966 31.0166 33.4576 31.2668L34.1454 32.3212L33.7875 33.1893L32.5551 33.4522C32.2636 33.5135 32.054 33.7714 32.054 34.0701V35.9466H28.9883C25.4753 35.9466 22.6167 33.0922 22.6167 29.5843L22.6191 29.5894ZM39.2132 41.124C39.1697 40.9198 39.0291 40.7513 38.8373 40.6721L37.3518 40.0568C37.1575 39.9777 36.9376 39.9955 36.7637 40.1104L35.8561 40.6976L34.8052 39.6483L35.3933 38.7445C35.5083 38.5709 35.5262 38.3513 35.447 38.1573L34.8333 36.6714C34.7541 36.4774 34.5828 36.3369 34.3782 36.2935L33.3222 36.0714V34.5855L34.3808 34.3609C34.5853 34.3175 34.7541 34.177 34.8333 33.983L35.447 32.4997C35.5262 32.3082 35.5058 32.0886 35.3933 31.9125L34.8052 31.0087L35.8586 29.9568L36.7663 30.544C36.9402 30.6563 37.16 30.6768 37.3518 30.5976L38.8373 29.9849C39.0316 29.9057 39.1722 29.7347 39.2157 29.533L39.4407 28.476H40.9288L41.1512 29.5304C41.1947 29.7347 41.3353 29.9057 41.5296 29.9849L43.0176 30.5976C43.2094 30.6768 43.4293 30.6563 43.6032 30.544L44.5083 29.9593L45.5617 31.0112L44.9736 31.915C44.8586 32.0912 44.8407 32.3107 44.9199 32.5022L45.5361 33.9856C45.6154 34.1771 45.7867 34.3175 45.9887 34.3609L47.0447 34.5855V36.0714L45.9912 36.2935C45.7867 36.337 45.6179 36.4774 45.5361 36.6689L44.9199 38.1547C44.8407 38.3488 44.8611 38.5683 44.9736 38.742L45.5617 39.6457L44.5108 40.6951L43.6057 40.1079C43.4318 39.993 43.212 39.9751 43.0176 40.0543L41.5296 40.6696C41.3353 40.7487 41.1946 40.9198 41.1537 41.124L40.9313 42.1759H39.4433L39.2183 41.1215L39.2132 41.124ZM28.7044 57.6632C28.5638 58.0615 26.3777 59.0496 21.9849 59.0496C17.5923 59.0496 15.406 58.0615 15.2653 57.6632V56.2284C16.9502 57.0658 19.9494 57.3262 21.9849 57.3262C24.0204 57.3262 27.0192 57.0658 28.7044 56.2284V57.6632ZM28.7044 60.6503C28.5664 61.0486 26.3828 62.0392 21.9849 62.0392C17.5869 62.0392 15.4034 61.0486 15.2653 60.6503V59.2181C16.9502 60.0554 19.9494 60.3159 21.9849 60.3159C24.0204 60.3159 27.0192 60.0555 28.7044 59.2181V60.6503ZM21.9849 65.0238C17.5974 65.0238 15.4113 64.0383 15.2653 63.6375V62.2026C16.9502 63.04 19.9494 63.303 21.9849 63.303C24.0204 63.303 27.0192 63.0401 28.7044 62.2026V63.6375C28.5587 64.0358 26.3726 65.0238 21.9849 65.0238ZM28.6992 54.6866C28.5279 55.0899 26.3443 56.0627 21.9849 56.0627C17.6255 56.0627 15.4445 55.0925 15.2705 54.6866C15.447 54.2806 17.6331 53.3104 21.9849 53.3104C26.3365 53.3104 28.5227 54.2806 28.6992 54.6866ZM46.8988 57.6635C46.7582 58.0618 44.5721 59.0498 40.1819 59.0498C35.7917 59.0498 33.603 58.0618 33.4623 57.6635V56.2286C35.1473 57.066 38.1464 57.3265 40.1819 57.3265C42.2174 57.3265 45.2137 57.0661 46.8988 56.2286V57.6635ZM46.8988 60.6506C46.7608 61.0489 44.5798 62.0395 40.1819 62.0395C35.784 62.0395 33.6004 61.0489 33.4623 60.6506V59.2183C35.1473 60.0557 38.1464 60.3162 40.1819 60.3162C42.2174 60.3162 45.2137 60.0557 46.8988 59.2183V60.6506ZM38.7452 47.7473C38.7452 46.9584 39.3895 46.315 40.1821 46.315C40.9747 46.315 41.6165 46.9584 41.6165 47.7473C41.6165 48.5388 40.9721 49.1822 40.1821 49.1822C39.392 49.1822 38.7452 48.5388 38.7452 47.7473ZM40.1821 53.3131C44.5312 53.3131 46.7173 54.2833 46.8938 54.6892C46.7225 55.0926 44.5389 56.0654 40.1821 56.0654C35.8252 56.0654 33.6417 55.0952 33.4678 54.6892C33.6442 54.2833 35.8303 53.3131 40.1821 53.3131ZM40.1821 65.0268C35.7946 65.0268 33.6085 64.0413 33.4625 63.6405V62.2056C35.1474 63.043 38.1466 63.306 40.1821 63.306C42.2176 63.306 45.2139 63.0431 46.899 62.2056V63.6405C46.7533 64.0388 44.5672 65.0268 40.1821 65.0268ZM44.025 35.334C44.025 33.2149 42.2991 31.4916 40.1821 31.4916C38.0625 31.4916 36.3341 33.2149 36.3341 35.334C36.3341 37.4531 38.0599 39.1764 40.1821 39.1764C42.3042 39.1764 44.025 37.4531 44.025 35.334ZM40.1821 37.9101C38.7579 37.9101 37.6023 36.7535 37.6023 35.334C37.6023 33.9119 38.7605 32.7579 40.1821 32.7579C41.6037 32.7579 42.7594 33.9145 42.7594 35.334C42.7594 36.7561 41.6037 37.9101 40.1821 37.9101ZM58.3765 52.0493C55.4106 52.0493 50.3917 52.6059 50.3917 54.6892V63.6507C50.3917 65.734 55.4107 66.2906 58.3765 66.2906C61.3422 66.2906 66.3613 65.734 66.3613 63.6507V54.6892C66.3613 52.6059 61.3422 52.0493 58.3765 52.0493ZM65.096 57.6662C64.9554 58.0645 62.7693 59.0525 58.3765 59.0525C53.9836 59.0525 51.7976 58.0645 51.6569 57.6662V56.2313C53.3418 57.0687 56.341 57.3292 58.3765 57.3292C60.412 57.3292 63.4108 57.0687 65.096 56.2313V57.6662ZM65.096 60.6533C64.958 61.0516 62.7744 62.0422 58.3765 62.0422C53.9785 62.0422 51.795 61.0516 51.6569 60.6533V59.221C53.3418 60.0584 56.341 60.3188 58.3765 60.3188C60.412 60.3188 63.4108 60.0584 65.096 59.221V60.6533ZM58.3765 53.3154C62.7282 53.3154 64.9143 54.2856 65.0908 54.6915C64.9195 55.0949 62.7359 56.0677 58.3765 56.0677C54.017 56.0677 51.8361 55.0975 51.6622 54.6915C51.8386 54.2856 54.0247 53.3154 58.3765 53.3154ZM58.3765 65.0291C53.989 65.0291 51.8029 64.0436 51.6569 63.6428V62.2079C53.3418 63.0453 56.341 63.3083 58.3765 63.3083C60.412 63.3083 63.4108 63.0454 65.096 62.2079V63.6428C64.9503 64.041 62.7642 65.0291 58.3765 65.0291ZM57.7654 54.5206C57.86 54.1861 58.2077 53.9896 58.5452 54.0815C58.8827 54.1759 59.077 54.5257 58.985 54.8602C58.8904 55.1972 58.5427 55.3938 58.2052 55.2993C57.8677 55.2074 57.6734 54.8576 57.7654 54.5206ZM39.571 54.5206C39.663 54.1861 40.0133 53.9896 40.3508 54.0815C40.6858 54.1759 40.8826 54.5257 40.788 54.8602C40.696 55.1972 40.3457 55.3938 40.0108 55.2993C39.6733 55.2074 39.4764 54.8576 39.571 54.5206ZM22.1542 54.0815C22.4917 54.1759 22.686 54.5257 22.594 54.8602C22.5019 55.1972 22.1517 55.3938 21.8142 55.2993C21.4792 55.2074 21.2823 54.8576 21.3744 54.5206C21.469 54.1861 21.8193 53.9896 22.1542 54.0815Z" fill="white"/>
</svg>
