<svg width="60" height="60" viewBox="0 0 60 60" fill="none" xmlns="http://www.w3.org/2000/svg">
<rect width="60" height="60" rx="5" fill="#355FF7"/>
<path d="M27.6064 9.47373C17.5982 9.47373 9.47363 17.5983 9.47363 27.6065C9.47363 35.509 14.5356 42.2432 21.599 44.7214C21.902 44.8274 22.2331 44.6684 22.339 44.3655C22.4466 44.0626 22.286 43.7315 21.9831 43.6239C15.3765 41.3064 10.6357 35.0146 10.6357 27.6066C10.6357 18.2255 18.2255 10.6358 27.6066 10.6358C34.5641 10.6358 40.5333 14.8189 43.1569 20.8012L41.4419 20.1755L41.4436 20.1771C41.1423 20.0662 40.8079 20.2218 40.697 20.5231C40.5878 20.8244 40.7434 21.1588 41.0447 21.268L43.9747 22.3374H43.973C44.0972 22.3804 44.2296 22.3821 44.3537 22.339H44.3653C44.3736 22.3357 44.3819 22.3324 44.3885 22.3274C44.4133 22.3175 44.4382 22.3059 44.4613 22.291C44.4812 22.2794 44.5011 22.2678 44.5209 22.2529C44.5408 22.238 44.5607 22.2198 44.5789 22.2016C44.5971 22.1834 44.6136 22.1669 44.6285 22.147C44.6451 22.1255 44.66 22.104 44.6732 22.0791C44.6848 22.0593 44.6947 22.0394 44.7047 22.0179C44.7096 22.0096 44.7146 22.0013 44.7196 21.9914L45.7922 19.0614C45.9015 18.7601 45.7475 18.4274 45.4446 18.3165C45.1433 18.2072 44.8106 18.3612 44.6997 18.6625L44.1468 20.1705C41.3062 13.8652 34.9661 9.47373 27.6064 9.47373ZM25.077 14.6052C24.7741 14.6052 24.5225 14.8369 24.4976 15.1382L24.3785 16.6098C24.3354 17.123 24.0176 17.5617 23.5441 17.757H23.5425C23.5375 17.7603 23.5326 17.762 23.5276 17.7636C23.5243 17.7653 23.5226 17.7669 23.5193 17.7669C23.0442 17.9639 22.5046 17.8795 22.1156 17.5501L20.9932 16.5933C20.7631 16.3963 20.4188 16.4112 20.2053 16.6247L16.6247 20.2053C16.4095 20.4188 16.3963 20.7631 16.5933 20.9932L17.5501 22.1156C17.8812 22.5046 17.9672 23.0442 17.7686 23.516L17.7851 23.4812C17.7818 23.4878 17.7587 23.5342 17.7438 23.5805L17.7587 23.5425C17.5617 24.0176 17.123 24.337 16.6132 24.3768H16.6115H16.6098L15.1382 24.496V24.4976C14.8369 24.5208 14.6052 24.7741 14.6052 25.077V30.139V30.1373C14.6052 30.4403 14.8369 30.6935 15.1382 30.7167L16.6082 30.8359C17.1213 30.8773 17.56 31.1968 17.757 31.6719C17.7603 31.6785 17.762 31.6835 17.7653 31.6884C17.7653 31.6901 17.7669 31.6934 17.7669 31.695C17.9639 32.1701 17.8795 32.7114 17.5484 33.0988L16.5916 34.2211H16.5933C16.3963 34.4512 16.4112 34.7939 16.6247 35.0091L20.2053 38.5896C20.4188 38.8032 20.7631 38.818 20.9932 38.6211L22.1156 37.6643C22.5046 37.3332 23.0442 37.2471 23.5177 37.4458L23.4829 37.4292C23.4895 37.4325 23.5359 37.4557 23.5822 37.4706L23.5441 37.4557C24.0192 37.6527 24.3387 38.0913 24.3785 38.6012H24.3768V38.6028L24.496 40.0745L24.4977 40.0761C24.5225 40.3774 24.7741 40.6092 25.077 40.6092H30.1373C30.4402 40.6092 30.6919 40.3774 30.7167 40.0761L30.8359 38.6045C30.8789 38.0914 31.1967 37.6543 31.6702 37.4573H31.6719C31.6785 37.454 31.6851 37.4507 31.6901 37.4474C31.6917 37.4474 31.6934 37.4474 31.695 37.4458C32.089 37.2819 32.5294 37.315 32.8885 37.5203L32.1105 39.4007C31.9947 39.6805 32.1138 40.0016 32.3837 40.1407L33.2974 40.6092H33.2958H33.2991C33.4911 40.7068 33.6285 40.879 33.6864 41.081C33.6964 41.1141 33.703 41.1488 33.7079 41.1852C33.7129 41.22 33.7146 41.2564 33.7146 41.2928V41.3094C33.7146 41.6024 33.554 41.8639 33.2991 41.9931V41.9947H33.2958L32.382 42.4632H32.3837C32.1138 42.6022 31.9963 42.9234 32.1122 43.2032L33.4597 46.451V46.4526C33.5755 46.7307 33.8867 46.8748 34.1748 46.7821L35.1514 46.4659C35.4246 46.3765 35.7226 46.4493 35.9295 46.6563L35.9394 46.6662C36.1463 46.8731 36.2191 47.1711 36.1298 47.4442H36.1314C36.1314 47.4442 36.1298 47.4442 36.1298 47.4458L35.8152 48.4225V48.4209C35.7209 48.7105 35.8649 49.0218 36.1463 49.1376L39.3974 50.4818C39.6772 50.5977 39.9984 50.4785 40.1357 50.2103L40.6042 49.2966C40.6059 49.2966 40.6059 49.2949 40.6059 49.2949C40.6224 49.2635 40.6406 49.232 40.6605 49.2039C40.6804 49.1757 40.7035 49.1476 40.7267 49.1228C40.8691 48.9705 41.0694 48.8794 41.2895 48.8794H41.3061C41.5991 48.8794 41.8606 49.04 41.9898 49.2949C41.9914 49.2949 41.9914 49.2966 41.9914 49.2966L42.4599 50.2103C42.5989 50.4801 42.9201 50.5977 43.1998 50.4818L46.4477 49.1327V49.1343C46.7274 49.0168 46.8715 48.7056 46.7788 48.4176L46.4642 47.4409L46.4626 47.4425V47.4409C46.3732 47.1678 46.446 46.8698 46.6529 46.6629L46.6629 46.6529C46.8698 46.446 47.1678 46.3748 47.4409 46.4626C47.4425 46.4626 47.4425 46.4626 47.4442 46.4642L48.4242 46.7771H48.4225C48.7105 46.8681 49.0218 46.7241 49.1376 46.4444L50.4834 43.1932H50.4818C50.5977 42.9135 50.4801 42.5923 50.2103 42.4533L49.2966 41.9848C49.2966 41.9848 49.2949 41.9848 49.2949 41.9831C49.0383 41.854 48.8794 41.5925 48.8794 41.2995V41.2829C48.8794 41.2465 48.8811 41.2101 48.886 41.1753C48.9208 40.927 49.0714 40.7135 49.2949 40.5992C49.2966 40.5992 49.2966 40.5992 49.2966 40.5976L50.2103 40.1291V40.1308C50.4801 39.9917 50.5977 39.6689 50.4818 39.3892L49.1327 36.1413H49.1343C49.0168 35.8616 48.7056 35.7192 48.4176 35.8119L47.4376 36.1297C47.1644 36.2175 46.8665 36.1463 46.6596 35.9394L46.6496 35.9294C46.4427 35.7225 46.3715 35.4246 46.4593 35.1514L46.7738 34.1748L46.7755 34.1764C46.8682 33.8867 46.7241 33.5755 46.4444 33.4597L43.1932 32.1155C43.0111 32.0393 42.8042 32.0625 42.642 32.1734C42.5625 32.2281 42.498 32.3009 42.4533 32.387L41.9848 33.3007L41.9831 33.3024C41.854 33.559 41.5925 33.7179 41.2995 33.7179H41.2829C40.9899 33.7179 40.7284 33.5573 40.5992 33.3024C40.5992 33.3007 40.5992 33.3007 40.5976 33.3007L40.1291 32.387H40.1308C39.9917 32.1172 39.6706 31.9996 39.3892 32.1155L37.5186 32.8919C37.3133 32.531 37.2802 32.094 37.4441 31.7016L37.4275 31.7381C37.4309 31.7314 37.454 31.6851 37.4689 31.6387L37.454 31.6768C37.651 31.2017 38.0897 30.8806 38.5995 30.8408L38.6012 30.8392H38.6045L40.0761 30.72H40.0745C40.3774 30.6968 40.6091 30.4436 40.6091 30.1406V25.077C40.6091 24.774 40.3774 24.5208 40.0745 24.4976L38.6045 24.3784C38.0913 24.3354 37.6527 24.0175 37.4573 23.5441L37.4557 23.5424C37.454 23.5374 37.4524 23.5325 37.4507 23.5292C37.4491 23.5259 37.4474 23.5226 37.4457 23.5192C37.2488 23.0441 37.3332 22.5045 37.6643 22.1155L38.6211 20.9932C38.818 20.7631 38.8031 20.4188 38.5896 20.2052L35.0091 16.6247C34.7939 16.4111 34.4512 16.3962 34.2211 16.5932L33.0988 17.55C32.7098 17.8811 32.1701 17.9672 31.6983 17.7685L31.7331 17.7851C31.7265 17.7818 31.6801 17.7586 31.6338 17.7437L31.6719 17.7586C31.1968 17.5616 30.8773 17.1229 30.8375 16.6131L30.8359 16.6114V16.6098L30.7167 15.1381C30.6919 14.8369 30.4402 14.6051 30.1373 14.6051L25.077 14.6052ZM25.6134 15.7673H29.6028L29.6789 16.7042C29.7534 17.6444 30.351 18.4622 31.2168 18.8247C31.2168 18.8247 31.2118 18.823 31.2135 18.823V18.8247C31.2151 18.8247 31.2168 18.8263 31.2184 18.8263C31.2217 18.828 31.2251 18.8297 31.2267 18.8313C31.23 18.833 31.2333 18.8346 31.2383 18.8363C31.2416 18.8379 31.2449 18.8396 31.2482 18.8412C31.2515 18.8429 31.2548 18.8429 31.2582 18.8446H31.2615C32.1338 19.2054 33.1354 19.0449 33.8521 18.4357V18.434L34.5656 17.8249L37.3863 20.6456L36.7771 21.359L36.7788 21.3623C36.168 22.0808 36.014 23.0806 36.3699 23.953C36.3765 23.9712 36.3815 23.9828 36.3865 23.9944C36.749 24.8651 37.5701 25.4594 38.5086 25.5372V25.5355H38.5103L39.4472 25.6116V29.6044L38.5119 29.6805C37.5684 29.7534 36.749 30.3543 36.3865 31.225C36.3848 31.2266 36.3848 31.2266 36.3848 31.2283C36.3848 31.2299 36.3832 31.2299 36.3832 31.2316C36.3815 31.2333 36.3815 31.2349 36.3815 31.2366C36.3782 31.2415 36.3765 31.2465 36.3732 31.2515C36.3716 31.2548 36.3716 31.2564 36.3716 31.2597V31.2614C36.0902 31.9418 36.1332 32.6949 36.4494 33.3372L36.1415 33.4647V33.463C35.8634 33.5805 35.7194 33.8917 35.8121 34.1798V34.1831L36.1266 35.1598C36.1481 35.2276 36.1613 35.2971 36.163 35.3667V35.3683C36.1646 35.4345 36.1564 35.5008 36.1415 35.5637C36.1398 35.5703 36.1382 35.5769 36.1348 35.5852C36.12 35.6415 36.0984 35.6961 36.0703 35.7491C36.0637 35.7623 36.0554 35.7739 36.0471 35.7871C36.0206 35.8318 35.9892 35.8732 35.9528 35.9129C35.9461 35.9196 35.9412 35.9278 35.9346 35.9345L35.9246 35.9444C35.9163 35.9527 35.9064 35.961 35.8965 35.9692C35.8617 36.0007 35.8236 36.0288 35.7839 36.0537C35.7624 36.0669 35.7392 36.0801 35.716 36.0917C35.678 36.1099 35.6399 36.1265 35.6002 36.1381C35.572 36.1464 35.5422 36.153 35.5124 36.1596C35.476 36.1662 35.4396 36.1695 35.4032 36.1712C35.3717 36.1728 35.3403 36.1712 35.3088 36.1679C35.2691 36.1646 35.2294 36.1563 35.1896 36.1464C35.1747 36.143 35.1598 36.1397 35.1449 36.1348L34.1683 35.8186H34.1716C33.8835 35.7259 33.5723 35.8699 33.4565 36.1497L33.3323 36.4493C32.6917 36.1331 31.9401 36.0934 31.2615 36.3698C31.2433 36.3765 31.2317 36.3814 31.2201 36.3864C30.3494 36.7489 29.7551 37.57 29.6773 38.5086H29.6789V38.5102L29.6028 39.4471H25.6117L25.5356 38.5102C25.4611 37.5683 24.8618 36.7506 23.9944 36.388C23.9944 36.388 24.0027 36.3913 24.001 36.3913V36.3897C23.9977 36.388 23.9944 36.3864 23.9928 36.3847C23.9911 36.3847 23.9895 36.3831 23.9878 36.3814L23.9861 36.3831C23.9845 36.3814 23.9812 36.3798 23.9795 36.3798C23.9746 36.3781 23.9696 36.3748 23.9663 36.3731C23.963 36.3715 23.9597 36.3715 23.9564 36.3698H23.9547C23.0823 36.009 22.0808 36.1695 21.364 36.7787H21.3624V36.7804L20.6489 37.3895L17.8282 34.5671L18.4374 33.8537C19.0482 33.1352 19.2022 32.1354 18.8479 31.2647C18.8396 31.2465 18.8363 31.2332 18.8297 31.2216C18.4655 30.3509 17.6461 29.7566 16.7075 29.6805L16.7042 29.6788L15.7673 29.6027V25.6116L16.7042 25.5355C17.6461 25.461 18.4639 24.8617 18.828 23.9943C18.828 23.9943 18.8297 23.9927 18.8297 23.991C18.8297 23.9894 18.8314 23.9877 18.833 23.986H18.8314C18.833 23.9844 18.833 23.9827 18.8347 23.9794C18.8363 23.9745 18.838 23.9711 18.8396 23.9662C18.8413 23.9629 18.8413 23.9612 18.8413 23.9579V23.9562C19.2022 23.0822 19.0432 22.0791 18.4341 21.3623H18.4357L17.8266 20.6488L20.6473 17.8281L21.3607 18.4373L21.3624 18.434C22.0808 19.0448 23.0807 19.1988 23.953 18.8429C23.9729 18.8346 23.9861 18.8296 23.9977 18.8246C24.8652 18.4605 25.4594 17.641 25.5356 16.7041L25.6134 15.7673ZM27.6081 21.2102C24.0821 21.2102 21.2116 24.0806 21.2116 27.6066C21.2116 31.1325 24.082 34.003 27.6081 34.003C31.134 34.003 34.0045 31.1326 34.0045 27.6066C34.0045 24.0807 31.1341 21.2102 27.6081 21.2102ZM27.6081 22.3723C30.5049 22.3723 32.8425 24.708 32.8425 27.6067C32.8425 30.5036 30.5068 32.8411 27.6081 32.8411C24.7112 32.8411 22.3736 30.5054 22.3736 27.6067C22.3736 24.7098 24.7093 22.3723 27.6081 22.3723ZM43.2444 33.3937L45.5056 34.329L45.355 34.7942C45.1315 35.4845 45.3186 36.241 45.8284 36.7525L45.8384 36.7624C46.0933 37.0173 46.4111 37.1928 46.7505 37.2755C46.8349 37.2954 46.921 37.312 47.0087 37.3202C47.2702 37.3467 47.5384 37.3202 47.7967 37.2375V37.2358L48.2651 37.0835L49.2021 39.3398L48.7684 39.5616C48.6061 39.6444 48.4605 39.747 48.3314 39.8678C48.2668 39.9274 48.2056 39.992 48.1509 40.0599C47.8745 40.3992 47.7156 40.8296 47.7156 41.2815V41.2981C47.7156 42.0214 48.1195 42.6902 48.7684 43.018H48.7651L49.2021 43.2414L48.2668 45.5043L47.7984 45.3553C47.1081 45.1319 46.3515 45.3189 45.8401 45.8288L45.8301 45.8387C45.3186 46.3502 45.1316 47.1084 45.3567 47.797L45.5073 48.2622L43.2494 49.1991L43.0276 48.7654C42.6998 48.1182 42.0311 47.7126 41.3077 47.7126H41.2911C40.5677 47.7126 39.9006 48.1165 39.5728 48.7621V48.7637L39.3494 49.1991L37.0898 48.2638L37.2405 47.7986C37.4639 47.1084 37.2785 46.3502 36.767 45.8404L36.7571 45.8304C36.2456 45.3189 35.4891 45.1319 34.7988 45.357L34.3336 45.5076L33.3967 43.2497L33.8304 43.0279C34.4776 42.6985 34.8816 42.0314 34.8816 41.308V41.2914C34.8816 41.2004 34.8749 41.111 34.8633 41.0233C34.7773 40.4075 34.3982 39.8595 33.8321 39.5715H33.8304L33.3951 39.348L34.1383 37.5503L34.1333 37.552H34.135L34.3254 37.0934L34.7905 37.2441C35.4808 37.4675 36.2373 37.2805 36.7488 36.7706L36.7588 36.7607C37.0783 36.4412 37.2719 36.0241 37.3166 35.5871C37.3249 35.501 37.3282 35.4149 37.3249 35.3272V35.3255C37.3199 35.1484 37.2885 34.9713 37.2322 34.7975L37.0832 34.3356L37.55 34.1436V34.142C37.56 34.137 37.5699 34.132 37.5782 34.1254L39.3395 33.3937L39.5613 33.8274C39.8891 34.4746 40.5578 34.8802 41.2812 34.8802H41.2978C42.0212 34.8802 42.6899 34.4763 43.0177 33.8274L43.2444 33.3937ZM41.2977 37.1315C39.005 37.1315 37.1328 39.0038 37.1328 41.2964C37.1328 43.5891 39.005 45.4613 41.2977 45.4613C43.5904 45.4613 45.4626 43.5907 45.4626 41.2964C45.4626 39.0037 43.592 37.1315 41.2977 37.1315ZM41.2977 38.2936C42.963 38.2936 44.3005 39.6311 44.3005 41.2964C44.3005 42.9617 42.963 44.2992 41.2977 44.2992C39.6324 44.2992 38.2949 42.9617 38.2949 41.2964C38.2949 39.6311 39.6324 38.2936 41.2977 38.2936Z" fill="white"/>
</svg>
