<svg width="80" height="80" viewBox="0 0 80 80" fill="none" xmlns="http://www.w3.org/2000/svg">
<rect width="80" height="80" rx="10" fill="#355FF7"/>
<path d="M26.5655 56.2627C26.5655 57.8467 25.2763 59.0452 23.7681 59.0452C22.1756 59.0452 20.9707 57.8384 20.9707 56.2627C20.9707 54.7542 22.184 53.4803 23.7681 53.4803C25.2763 53.4803 26.5655 54.7542 26.5655 56.2627ZM57.5055 17.7355C60.2271 17.7355 62.4262 19.9145 62.4262 22.63C62.4262 25.337 60.2355 27.5244 57.5055 27.5244C54.7839 27.5244 52.5848 25.3454 52.5848 22.63C52.5848 19.9145 54.7839 17.7355 57.5055 17.7355ZM57.5055 19.0932C55.5423 19.0932 53.8739 20.6772 53.8739 22.63C53.8739 24.6582 55.5423 26.2422 57.5055 26.2422C59.4687 26.2422 61.1371 24.6582 61.1371 22.63C61.1371 20.6688 59.4687 19.0932 57.5055 19.0932ZM19.0749 25.2616C22.2514 22.7808 25.5038 20.2917 28.6046 17.8109L27.6187 16.6041C27.3154 16.2269 27.6187 15.5481 28.1496 15.5481H35.2611C35.6402 15.5481 35.9436 15.9252 35.8677 16.3778L34.4269 23.225C34.3511 23.8284 33.6686 23.9793 33.2894 23.5267L32.3036 22.3199C30.6352 23.6776 28.8995 24.9515 27.1553 26.3092C27.0795 26.3846 26.9278 26.4601 26.7761 26.4601H19.4372C18.7715 26.4601 18.544 25.5633 19.0749 25.2616ZM21.4173 25.1107H26.5655C28.3771 23.6776 30.1971 22.3283 32.0087 20.8951C32.2362 20.6688 32.6912 20.6688 32.9187 20.9705L33.4495 21.6494L34.4353 16.9058H29.5904L30.1212 17.5092C30.3487 17.8109 30.2729 18.1881 29.9696 18.4898C27.1637 20.7443 24.2905 22.9233 21.4173 25.1107ZM54.8513 23.0742C54.2447 22.4707 55.1547 21.5656 55.7613 22.169L56.7472 23.1496L59.0137 21.046C59.6204 20.518 60.4546 21.4231 59.8479 22.0265L57.2022 24.5073C56.8988 24.7336 56.5197 24.7336 56.2922 24.5073L54.8513 23.0742ZM55.8372 35.2684C54.9272 35.2684 54.9272 33.9107 55.8372 33.9107H61.3562C61.7353 33.9107 62.0387 34.2124 62.0387 34.5896C62.0387 34.9667 61.7353 35.2684 61.3562 35.2684H55.8372ZM53.1914 32.3351C52.3573 32.3351 52.3573 31.0528 53.1914 31.0528H61.3646C62.2746 31.0528 62.2746 32.3351 61.3646 32.3351H53.1914ZM57.3538 38.2018C56.5197 38.2018 56.5197 36.8441 57.3538 36.8441H61.3646C62.2746 36.8441 62.2746 38.2018 61.3646 38.2018H57.3538ZM45.4733 29.4772C44.5633 29.4772 44.5633 28.1195 45.4733 28.1195H61.3562C62.2662 28.1195 62.2662 29.4772 61.3562 29.4772H45.4733ZM45.4733 26.5355C44.5633 26.5355 44.5633 25.1778 45.4733 25.1778H51.4473C52.2814 25.1778 52.2814 26.5355 51.4473 26.5355H45.4733ZM43.5859 21.9511H46.6108C47.0658 21.9511 47.4449 21.574 47.4449 21.1214V17.6601L43.5859 21.9511ZM48.8015 16.6795V21.1214C48.8015 22.3283 47.8157 23.3004 46.6108 23.3004H42.9034V29.846H43.2825C49.6357 29.846 54.9356 34.2124 56.2922 40.1545H63.1003C63.5553 40.1545 63.9345 39.7774 63.9345 39.3248V17.5092C63.9345 17.0566 63.5553 16.6795 63.1003 16.6795H48.8015ZM42.9034 33.9107V39.3332C42.9034 39.7858 43.2825 40.1629 43.7375 40.1629H52.0624C50.849 36.5507 47.3691 33.9191 43.291 33.9191C43.1309 33.9107 43.055 33.9107 42.9034 33.9107ZM52.4331 41.5123H43.7375C42.5242 41.5123 41.5468 40.5317 41.5468 39.3332V34.07C40.6368 34.2208 39.7352 34.598 38.9011 35.0505V41.8978H40.1144C40.4936 41.8978 40.7969 42.1995 40.7969 42.5766V46.1134C40.7969 46.4905 40.4936 46.7923 40.1144 46.7923H34.8229C36.2637 50.0273 39.5162 52.2818 43.2994 52.2818C48.4476 52.2818 52.5258 48.1416 52.5258 43.1046C52.5089 42.5683 52.5089 41.9648 52.4331 41.5123ZM41.5384 29.9214V22.4707C41.5384 22.2444 41.69 22.0936 41.69 22.0936L47.5124 15.6235C47.5882 15.3972 47.8157 15.3218 48.0432 15.3218H63.1003C64.3137 15.3218 65.2911 16.3023 65.2911 17.5008V39.3332C65.2911 40.5401 64.3052 41.5123 63.1003 41.5123H56.5197C56.5955 42.0403 56.5955 42.5683 56.5955 43.0963C56.5955 45.9542 55.6855 48.5858 54.1773 50.7732C55.7698 50.7732 57.0505 51.9801 57.1263 53.4803C57.3538 53.4048 57.6572 53.4048 57.8847 53.6311L64.5412 60.1766C67.1111 62.7328 63.252 66.7976 60.5304 64.166L53.9498 57.6204C53.4948 57.1679 53.8739 56.7907 53.8739 56.7153C52.3573 56.5644 51.1524 55.2822 51.1524 53.782C48.9616 55.366 46.2316 56.3382 43.2825 56.3382C37.2327 56.3382 32.0845 52.2734 30.5004 46.7839H16.1258C15.7466 46.7839 15.4433 46.4822 15.4433 46.105V42.5683C15.4433 42.1911 15.7466 41.8894 16.1258 41.8894H17.3307V30.6003C17.3307 30.2985 17.634 29.9214 18.089 29.9968C19.3782 30.1477 20.6589 30.2231 21.9481 30.2231H22.4031C22.7823 30.2231 23.0098 30.4494 23.0098 30.8265V41.8894H25.2763V30.5248C25.2763 30.2231 25.5038 29.9214 25.8072 29.846C27.248 29.6197 28.6804 29.318 30.0454 28.79C30.5004 28.6391 30.9554 28.9408 30.9554 29.3934V38.118C31.4862 36.7603 32.2446 35.5618 33.222 34.4303V27.8094C33.222 27.4323 33.4495 27.2814 33.5253 27.206C35.1178 26.3008 36.6261 25.1023 37.6877 23.6692C37.9911 23.0658 38.9011 23.2921 38.9011 23.9709V30.5919C39.7268 30.2985 40.6368 30.0723 41.5384 29.9214ZM54.1773 52.0471C53.2673 52.0471 52.5089 52.8014 52.5089 53.7065C52.5089 54.6117 53.2673 55.366 54.1773 55.366C55.0873 55.366 55.8456 54.6117 55.8456 53.7065C55.8372 52.8014 55.0788 52.0471 54.1773 52.0471ZM43.2825 32.5614C49.1049 32.5614 53.8739 37.305 53.8739 43.0963C53.8739 48.8875 49.1049 53.6311 43.2825 53.6311C37.4602 53.6311 32.6911 48.8875 32.6911 43.0963C32.6911 37.305 37.4518 32.5614 43.2825 32.5614ZM37.6035 35.8719C36.1626 37.0033 35.0336 38.5035 34.5027 40.3138V41.8978H37.6035V35.8719ZM34.0477 43.2471C34.0477 44.0014 34.1994 44.7557 34.3511 45.4262H39.4235V43.2471H34.0477ZM56.368 58.1401L58.4071 56.0364L57.4212 55.0559L55.3063 57.0841L56.368 58.1401ZM59.3929 56.9416L57.278 59.0452L61.5162 63.2608C62.8812 64.5431 64.9962 62.5065 63.6312 61.1572L59.3929 56.9416ZM30.1971 45.4262C30.0454 44.6719 29.9696 43.993 29.9696 43.2471H16.7999V45.4262H30.1971ZM34.5027 33.1564C35.4127 32.3267 36.466 31.6479 37.6035 31.1283V25.7142C36.6935 26.6947 35.6402 27.4406 34.5027 28.1195V33.1564ZM43.2825 31.2037C36.7019 31.2037 31.3261 36.4669 31.3261 43.0963C31.3261 49.6418 36.6935 54.9888 43.2825 54.9888C49.939 54.9888 55.2389 49.6502 55.2389 43.0963C55.2305 36.4669 49.939 31.2037 43.2825 31.2037ZM18.6199 41.8894H21.7206V31.5054C20.7348 31.5054 19.6815 31.43 18.6199 31.3545V41.8894ZM26.5655 41.8894H29.6662V30.2985C28.6804 30.6003 27.6272 30.8265 26.5655 31.0528V41.8894ZM27.8462 56.2627C27.8462 54.0083 26.0347 52.198 23.7597 52.198C21.4173 52.198 19.5973 53.9999 19.5973 56.2627C19.5973 58.5926 21.4088 60.4029 23.7597 60.4029C26.0347 60.4029 27.8462 58.5926 27.8462 56.2627ZM30.7195 57.0924H30.947C32.0845 57.3942 32.4637 58.5256 32.0087 59.3469L30.5678 61.8277C29.9611 62.6574 28.8321 62.8837 28.0737 62.1294L27.9221 61.9031C27.4671 62.2048 27.0121 62.5065 26.5571 62.6574C26.6329 62.8837 26.6329 63.0345 26.7087 63.1854C26.7846 64.0905 26.0262 64.9203 25.1921 64.9203H22.3188C21.4088 64.9203 20.6505 64.0905 20.8022 63.1854C20.8022 63.0345 20.878 62.8837 20.878 62.6574C20.423 62.5065 19.968 62.2048 19.5888 61.9031L19.3613 62.1294C18.6788 62.8837 17.4739 62.6574 16.9431 61.8277L15.5023 59.3469C14.9714 58.5172 15.3506 57.3942 16.4881 57.0924H16.7156C16.7156 56.5644 16.7156 56.0364 16.7156 55.5084L16.4881 55.433C15.3506 55.2067 14.9714 54.0753 15.5023 53.1785L16.9431 50.6978C17.4739 49.8681 18.6788 49.7172 19.3613 50.4715L19.5888 50.6978C19.968 50.3961 20.423 50.0944 20.878 49.8681C20.878 49.7172 20.8022 49.5663 20.8022 49.3401C20.6505 48.5103 21.4088 47.6806 22.3188 47.6806H25.1921C26.0262 47.6806 26.7846 48.5103 26.7087 49.3401C26.6329 49.5663 26.6329 49.7172 26.5571 49.8681C27.0121 50.0944 27.4671 50.3961 27.9221 50.6978L28.0737 50.4715C28.8321 49.7172 29.9611 49.8681 30.5678 50.6978L32.0087 53.1785C32.4637 54.0837 32.0845 55.2067 30.947 55.433L30.7195 55.5084C30.7953 56.0364 30.7953 56.5644 30.7195 57.0924ZM29.3629 57.3858C29.4387 56.6315 29.4387 55.8772 29.3629 55.2067C29.2112 54.8296 29.4387 54.4524 29.8179 54.377L30.6521 54.1507C30.8037 54.1507 30.8796 53.9999 30.8037 53.849L29.4387 51.4437C29.2871 51.2928 29.1354 51.2928 29.0596 51.3683L28.4529 51.9717C28.2254 52.2734 27.7704 52.2734 27.5429 52.0471C26.9362 51.5191 26.3296 51.142 25.5797 50.9157C25.2005 50.8403 24.973 50.4631 25.1247 50.086L25.3522 49.2563C25.428 49.1054 25.2763 49.03 25.1247 48.9545H22.3273C22.1756 49.03 22.0998 49.1054 22.0998 49.2563L22.4031 50.086C22.4789 50.4631 22.2514 50.8403 21.8723 50.9157C21.1898 51.142 20.5073 51.5191 19.9849 52.0471C19.6815 52.2734 19.2265 52.2734 18.999 51.9717L18.4682 51.3683C18.3165 51.2928 18.1649 51.2928 18.089 51.4437L16.6482 53.849C16.5724 53.9999 16.6482 54.1507 16.7999 54.1507L17.634 54.377C18.0132 54.4524 18.2407 54.8296 18.1649 55.2067C18.0132 55.8856 18.0132 56.6399 18.1649 57.3858C18.2407 57.7629 18.0132 58.1401 17.634 58.2155L16.7999 58.3663C16.6482 58.4418 16.5724 58.5926 16.6482 58.7435L18.089 61.1488C18.1649 61.2997 18.3165 61.2997 18.4682 61.2243L18.999 60.5454C19.2265 60.3191 19.6815 60.2437 19.9849 60.5454C20.5157 60.998 21.1982 61.3751 21.8723 61.6768C22.2514 61.7523 22.4789 62.1294 22.4031 62.5065L22.0998 63.3363C22.0998 63.4871 22.1756 63.5625 22.3273 63.638H25.1247C25.2763 63.5625 25.428 63.4871 25.3522 63.3363L25.1247 62.5065C24.973 62.1294 25.2005 61.7523 25.5797 61.6768C26.338 61.3751 26.9447 60.998 27.5429 60.5454C27.7704 60.2437 28.2254 60.3191 28.4529 60.5454L29.0596 61.2243C29.1354 61.2997 29.2871 61.2997 29.4387 61.1488L30.8037 58.7435C30.8796 58.5926 30.8037 58.4418 30.6521 58.3663L29.8179 58.2155C29.4387 58.1401 29.2112 57.7629 29.3629 57.3858Z" fill="white"/>
</svg>
