<svg width="80" height="80" viewBox="0 0 80 80" fill="none" xmlns="http://www.w3.org/2000/svg">
<rect width="80" height="80" rx="10" fill="#355FF7"/>
<path d="M23.8125 19.2208V21.7438H43.2188V20.0618H25.5V19.2208C25.5 18.5516 25.7667 17.9098 26.2414 17.4367C26.7161 16.9635 27.3599 16.6977 28.0312 16.6977H44.0625V15.0156H28.0312C26.9128 15.017 25.8405 15.4604 25.0496 16.2488C24.2587 17.0371 23.8138 18.1059 23.8125 19.2208Z" fill="white"/>
<path d="M23.8125 33.5181V61.2719C23.8138 62.3868 24.2587 63.4556 25.0496 64.2439C25.8405 65.0322 26.9128 65.4757 28.0312 65.477H46.5938V63.795H28.0312C27.3599 63.795 26.7161 63.5292 26.2414 63.056C25.7667 62.5828 25.5 61.9411 25.5 61.2719V58.7488H44.9062V57.0668H25.5V33.5181H23.8125Z" fill="white"/>
<path d="M52.5001 36.8823V47.4675L46.7685 41.7544C46.4131 41.4002 45.9913 41.1192 45.527 40.9275C45.0627 40.7358 44.5651 40.6372 44.0626 40.6372C43.0477 40.6372 42.0743 41.0391 41.3567 41.7544C41.0013 42.1086 40.7194 42.5291 40.5271 42.9919C40.3348 43.4546 40.2358 43.9506 40.2358 44.4516C40.2358 45.4632 40.639 46.4334 41.3567 47.1487L48.0729 53.8433L47.6983 54.4968C46.8429 55.9758 46.4422 57.6726 46.5458 59.3766C46.6495 61.0806 47.2529 62.7168 48.2813 64.0819V65.4772H49.9688V63.7951C49.9689 63.6041 49.9037 63.4187 49.784 63.2695C48.8894 62.1633 48.3513 60.8132 48.2405 59.3966C48.1296 57.9799 48.4512 56.563 49.163 55.3319L49.8574 54.12C49.9486 53.9601 49.9847 53.7748 49.9602 53.5926C49.9356 53.4103 49.8518 53.241 49.7216 53.1108L42.5497 45.962C42.1589 45.56 41.9423 45.0209 41.9467 44.461C41.9512 43.9012 42.1762 43.3656 42.5734 42.9697C42.9705 42.5738 43.5079 42.3495 44.0696 42.3451C44.6312 42.3407 45.172 42.5565 45.5754 42.9461L54.4348 51.7769L55.6278 50.5877L54.1876 49.1495V36.8823H52.5001Z" fill="white"/>
<path d="M39.8438 60.4312H38.1562V62.1132H39.8438V60.4312Z" fill="white"/>
<path d="M60.094 65.4774V48.6939C60.0961 46.4613 59.2868 44.3036 57.8159 42.62L56.525 41.0708L55.2256 42.1448L56.5275 43.7099C57.7387 45.0896 58.4064 46.8605 58.4065 48.6939V65.4774H60.094Z" fill="white"/>
<path d="M43.2188 36.0415H41.5312V39.4056H43.2188V36.0415Z" fill="white"/>
<path d="M19.9068 21.9307C19.809 22.0096 19.7301 22.1093 19.6759 22.2225C19.6217 22.3357 19.5937 22.4596 19.5938 22.585V30.9952C19.5938 31.2183 19.6826 31.4322 19.8409 31.5899C19.9991 31.7477 20.2137 31.8363 20.4375 31.8363C20.4776 31.8364 20.5176 31.8336 20.5573 31.8279L28.0312 30.7631V34.3593C28.0313 35.0285 28.2979 35.6703 28.7726 36.1434C29.2473 36.6166 29.8912 36.8824 30.5625 36.8824H34.7812V54.544C34.7812 54.767 34.8701 54.9809 35.0284 55.1386C35.1866 55.2964 35.4012 55.385 35.625 55.385H42.375C42.5988 55.385 42.8134 55.2964 42.9716 55.1386C43.1299 54.9809 43.2188 54.767 43.2188 54.544V50.3388H41.5312V53.7029H39.8438V46.9747H38.1562V53.7029H36.4688V36.0414C36.4688 35.8183 36.3799 35.6044 36.2216 35.4467C36.0634 35.289 35.8488 35.2004 35.625 35.2004H30.5625C30.3387 35.2004 30.1241 35.1118 29.9659 34.954C29.8076 34.7963 29.7188 34.5824 29.7188 34.3593V30.5234L31.4062 30.2829V32.6773C31.4062 32.9003 31.4951 33.1143 31.6534 33.272C31.8116 33.4297 32.0262 33.5183 32.25 33.5183H42.375C43.0463 33.5183 43.6902 33.7841 44.1649 34.2573C44.6396 34.7305 44.9062 35.3722 44.9062 36.0414V39.4055H46.5938V36.0414C46.5924 34.9265 46.1475 33.8577 45.3566 33.0694C44.5657 32.2811 43.4935 31.8376 42.375 31.8363H42.3531C42.9115 31.1127 43.2156 30.2261 43.2188 29.3132V27.6311C43.2188 26.5159 42.7743 25.4463 41.9831 24.6577C41.1919 23.869 40.1189 23.426 39 23.426C37.8811 23.426 36.8081 23.869 36.0169 24.6577C35.2257 25.4463 34.7812 26.5159 34.7812 27.6311V29.3132C34.7844 30.2261 35.0885 31.1127 35.6469 31.8363H33.0938V25.1081C33.0938 24.9156 33.0277 24.729 32.9064 24.5793C32.7851 24.4296 32.6159 24.3259 32.4272 24.2855L20.6147 21.7625C20.4916 21.7361 20.3641 21.7375 20.2416 21.7666C20.1191 21.7957 20.0047 21.8517 19.9068 21.9307ZM36.4688 29.3132V27.6311C36.4688 26.962 36.7354 26.3202 37.2101 25.847C37.6848 25.3739 38.3287 25.1081 39 25.1081C39.6713 25.1081 40.3152 25.3739 40.7899 25.847C41.2646 26.3202 41.5312 26.962 41.5312 27.6311V29.3132C41.5312 29.9823 41.2646 30.6241 40.7899 31.0973C40.3152 31.5704 39.6713 31.8363 39 31.8363C38.3287 31.8363 37.6848 31.5704 37.2101 31.0973C36.7354 30.6241 36.4688 29.9823 36.4688 29.3132ZM21.2813 23.6253L31.4062 25.7884V28.584L21.2813 30.0255V23.6253Z" fill="white"/>
<path d="M14.7339 21.7694L14.3252 23.4014L17.7004 24.2412L18.1091 22.6092L14.7339 21.7694Z" fill="white"/>
<path d="M17.7021 29.3389L14.3269 30.1787L14.7356 31.8107L18.1108 30.9709L17.7021 29.3389Z" fill="white"/>
<path d="M17.0625 25.9487H13.6875V27.6308H17.0625V25.9487Z" fill="white"/>
<path d="M60.0938 15.0156H49.9688C48.8503 15.017 47.778 15.4604 46.9871 16.2488C46.1962 17.0371 45.7513 18.1059 45.75 19.2208V27.631C45.7513 28.7459 46.1962 29.8147 46.9871 30.603C47.778 31.3913 48.8503 31.8348 49.9688 31.8361H50.6269L49.9856 35.032C49.9534 35.193 49.9692 35.3598 50.0309 35.512C50.0927 35.6641 50.1978 35.795 50.3332 35.8883C50.4687 35.9816 50.6286 36.0334 50.7932 36.0373C50.9578 36.0412 51.12 35.9969 51.2597 35.9101L57.8047 31.8361H60.0938C61.2122 31.8348 62.2845 31.3913 63.0754 30.603C63.8663 29.8147 64.3112 28.7459 64.3125 27.631V19.2208C64.3112 18.1059 63.8663 17.0371 63.0754 16.2488C62.2845 15.4604 61.2122 15.017 60.0938 15.0156ZM62.625 27.631C62.625 28.3002 62.3583 28.9419 61.8836 29.4151C61.4089 29.8883 60.7651 30.1541 60.0938 30.1541H57.5625C57.4044 30.1541 57.2494 30.1984 57.1153 30.2819L52.0233 33.4543L52.4831 31.1633C52.5082 31.0411 52.5056 30.9149 52.4756 30.7938C52.4457 30.6727 52.3891 30.5597 52.3099 30.4631C52.2308 30.3665 52.1311 30.2887 52.018 30.2352C51.905 30.1818 51.7814 30.1541 51.6562 30.1541H49.9688C49.2974 30.1541 48.6536 29.8883 48.1789 29.4151C47.7042 28.9419 47.4375 28.3002 47.4375 27.631V19.2208C47.4375 18.5516 47.7042 17.9098 48.1789 17.4367C48.6536 16.9635 49.2974 16.6977 49.9688 16.6977H60.0938C60.7651 16.6977 61.4089 16.9635 61.8836 17.4367C62.3583 17.9098 62.625 18.5516 62.625 19.2208V27.631Z" fill="white"/>
<path d="M60.0936 20.9031H57.17L55.7356 18.7542C55.654 18.6455 55.548 18.5571 55.4262 18.4963C55.3043 18.4355 55.1699 18.4038 55.0336 18.4038C54.8973 18.4038 54.7629 18.4355 54.641 18.4963C54.5192 18.5571 54.4132 18.6455 54.3316 18.7542L52.8922 20.9031H49.9686C49.8017 20.9031 49.6386 20.9524 49.4999 21.0449C49.3612 21.1373 49.2531 21.2686 49.1892 21.4223C49.1254 21.5759 49.1087 21.745 49.1412 21.9081C49.1737 22.0712 49.2541 22.2211 49.372 22.3387L51.5658 24.5254L50.8376 27.4269C50.7973 27.5832 50.8029 27.7479 50.8539 27.9011C50.9048 28.0544 50.9989 28.1898 51.125 28.2911C51.2511 28.3925 51.4038 28.4555 51.5648 28.4728C51.7259 28.49 51.8885 28.4606 52.0332 28.3882L55.0311 26.8895L58.0289 28.3882C58.1733 28.4601 58.3354 28.4893 58.4959 28.4722C58.6564 28.455 58.8086 28.3924 58.9345 28.2916C59.0604 28.1909 59.1546 28.0563 59.206 27.9037C59.2574 27.7512 59.2638 27.5872 59.2245 27.4311L58.4964 24.5296L60.6901 22.3429C60.8095 22.2255 60.8911 22.0753 60.9245 21.9115C60.9579 21.7476 60.9415 21.5776 60.8775 21.4231C60.8135 21.2685 60.7047 21.1365 60.5651 21.0439C60.4255 20.9513 60.2613 20.9022 60.0936 20.9031ZM56.9658 23.6726C56.8627 23.7753 56.7881 23.9029 56.7492 24.0429C56.7103 24.1829 56.7085 24.3306 56.7439 24.4715L57.143 26.0611L55.4082 25.1965C55.2911 25.1382 55.162 25.1078 55.0311 25.1078C54.9002 25.1078 54.771 25.1382 54.6539 25.1965L52.9217 26.0611L53.3208 24.4715C53.3562 24.3306 53.3544 24.1829 53.3155 24.0429C53.2766 23.9029 53.202 23.7753 53.0989 23.6726L52.0054 22.5851H53.3436C53.4824 22.5851 53.6192 22.551 53.7416 22.4857C53.8641 22.4204 53.9685 22.326 54.0456 22.2109L55.0311 20.7349L56.0166 22.2083C56.0934 22.3239 56.1976 22.4188 56.3201 22.4846C56.4426 22.5503 56.5795 22.5849 56.7186 22.5851H58.0568L56.9658 23.6726Z" fill="white"/>
</svg>
