<svg width="60" height="60" viewBox="0 0 60 60" fill="none" xmlns="http://www.w3.org/2000/svg">
<rect width="60" height="60" rx="5" fill="#355FF7"/>
<path d="M40.6289 48.9466C38.4567 48.953 36.4161 47.9099 35.152 46.1485C33.8863 44.3871 33.5542 42.1249 34.2585 40.0755L24.4198 34.4105V34.4121C23.1204 35.8616 21.2579 36.6855 19.3073 36.6743C10.3573 36.5047 10.455 23.4709 19.3089 23.3251C21.258 23.3139 23.1205 24.1362 24.4198 25.5872L34.2584 19.9238C33.5542 17.8744 33.8879 15.6124 35.152 13.8509C36.4177 12.0894 38.4583 11.0463 40.6305 11.0528C49.5755 11.2207 49.4843 24.2545 40.6289 24.402C38.6829 24.4132 36.8253 23.594 35.5258 22.1494L25.6838 27.8161C26.1474 29.2351 26.1474 30.7646 25.6822 32.1836L35.5258 37.8503C36.7402 36.4792 38.4599 35.6585 40.2917 35.5753C42.1237 35.4921 43.9109 36.1529 45.2454 37.4087C46.5785 38.663 47.3453 40.4036 47.3678 42.2321C47.3934 44.0224 46.6924 45.7454 45.4218 47.0109C44.1529 48.2763 42.4235 48.9739 40.6284 48.9467L40.6289 48.9466ZM36.4564 42.272C36.474 44.5662 38.3493 46.4139 40.6498 46.4028C42.9503 46.3916 44.8079 44.5262 44.803 42.2335C44.6442 36.5668 36.4017 37.0805 36.4564 42.272ZM19.3088 25.8847C13.8386 25.8463 13.7535 34.1353 19.3088 34.1144C24.816 34.1304 24.8111 25.8687 19.3088 25.8847ZM37.0707 19.9461C38.0734 21.5155 39.9952 22.2354 41.787 21.7123C43.5773 21.1892 44.8077 19.5493 44.8029 17.6871C44.8238 16.5848 44.3891 15.5225 43.5982 14.7514C42.8089 13.9803 41.734 13.5675 40.6303 13.6123C39.1176 13.6059 37.7203 14.4186 36.9808 15.7337C36.2412 17.0504 36.275 18.6614 37.0707 19.9461Z" fill="white"/>
</svg>
