<svg width="53" height="46" viewBox="0 0 53 46" fill="none" xmlns="http://www.w3.org/2000/svg">
<path d="M5.79357e-05 17C-0.00682456 19.6398 0.609918 22.2438 1.80005 24.6C3.21119 27.4235 5.38055 29.7984 8.06515 31.4586C10.7497 33.1188 13.8436 33.9988 17 34C19.6398 34.0069 22.2438 33.3901 24.6 32.2L36 36L32.2 24.6C33.3901 22.2438 34.0069 19.6398 34 17C33.9988 13.8435 33.1188 10.7497 31.4586 8.06514C29.7984 5.38055 27.4235 3.21119 24.6 1.80005C22.2438 0.609918 19.6398 -0.00682552 17 5.69761e-05H16C11.8313 0.23004 7.89396 1.98958 4.94177 4.94177C1.98958 7.89396 0.230041 11.8313 5.79357e-05 16V17Z" fill="#8FF9EC" fill-opacity="0.65"/>
<path d="M52.9999 27C53.0068 29.6398 52.3901 32.2438 51.1999 34.6C49.7888 37.4235 47.6195 39.7984 44.9349 41.4586C42.2503 43.1188 39.1564 43.9988 36 44C33.3602 44.0069 30.7562 43.3901 28.4 42.2L17 46L20.8 34.6C19.6099 32.2438 18.9931 29.6398 19 27C19.0012 23.8435 19.8812 20.7497 21.5414 18.0651C23.2016 15.3805 25.5765 13.2112 28.4 11.8001C30.7562 10.6099 33.3602 9.99317 36 10.0001H37C41.1687 10.23 45.106 11.9896 48.0582 14.9418C51.0104 17.894 52.77 21.8313 52.9999 26V27Z" fill="#14EF57" fill-opacity="0.5"/>
</svg>
